<svg xmlns="http://www.w3.org/2000/svg" id="Ebene_1" x="0" y="0" version="1.1" viewBox="0 0 283.5 283.5" xml:space="preserve">
  <style>
    .st2{fill:#fff}.st3,.st4{fill:none;stroke:#fff;stroke-linecap:round;stroke-miterlimit:10}.st3{stroke-linejoin:round;stroke-width:3.1957}.st4{stroke-width:4.2}
  </style>
  <linearGradient id="SVGID_1_" x1="30.3" x2="253.6" y1="77.4" y2="206.3" gradientUnits="userSpaceOnUse">
    <stop offset="0" stop-color="#95c11f"/>
    <stop offset=".1" stop-color="#8dbe20"/>
    <stop offset=".3" stop-color="#78b724"/>
    <stop offset=".6" stop-color="#55ab29"/>
    <stop offset=".8" stop-color="#259a30"/>
    <stop offset="1" stop-color="#008d36"/>
  </linearGradient>
  <circle cx="141.9" cy="141.8" r="128.9" fill="url(#SVGID_1_)"/>
  <path d="M160.3 145.3c0-1.8-1.5-4.6-3.2-4.6h-7V131c0-1.3-1.5-2.3-3.4-2.3s-3.5 1-3.5 2.3v9.8h-7V131c0-1.3-1.5-2.3-3.4-2.3s-3.4 1-3.4 2.3v9.8h-5.9c-1.7 0-3.2 2.8-3.2 4.6 0 .6-2.8 23 19.6 23 22.4.1 20.4-22.2 20.4-23zM218 168.2c-1.3 0-17.4 13.3-17.4 24.7 0 11.4 8.6 16.8 16.5 16.8 8 0 15.6-4.6 16.8-16 1.2-11.5-16-25.5-16-25.5zm2.8 36c6.5-2.3 8.6-11.7 8.6-11.7 1.1 10.7-8.6 11.7-8.6 11.7z" class="st2"/>
  <path d="M89.4 47.6L92 62.5M104.5 64.4l7.3-9.9M112.6 74.7l13.2-2.3M109.6 88.3l9.7 6.9M98.2 95.7l2.2 12.7M84.9 91.7l-6.3 10.5M77.7 81.2l-13.1 2.7M80.8 68l-9.7-6.4" class="st3"/>
  <path d="M92.7 65.5A13 13 0 1097 91.2a13 13 0 00-4.4-25.7zM86 80.4c-2.2-8.6 6-11 6-11-6 3.1-6 11-6 11z" class="st2"/>
  <path d="M140.5 165.3s1.2 36.4.9 42.4c-.4 6-.8 24.2-18 21 0 0-23.4-3-47.7-24.3" class="st4"/>
  <g>
    <path fill="none" stroke="#fff" stroke-linecap="round" stroke-linejoin="round" stroke-miterlimit="10" stroke-width="2.9" d="M62.9 177.3v27.4"/>
    <path d="M62.8 176.6c.2.3 11.8-14.5-.6-33.6 0 0-5 11.5-2.2 29.3 0 0 2.3 3.1 2.8 4.3zM64 176.7c-.4 0 8 16.3 31.7 12.4 0 0-9.2-9.3-26.8-13.4 0 0-3.7 1-5 1z" class="st2"/>
    <circle cx="62.8" cy="177.5" r="4" class="st2"/>
    <path d="M56.8 175.9c-19.5.6-27 14.3-27 14.3 21.8.8 32.4-13.3 32-13.3-1.2 0-5-1-5-1zm-20.4 13s10-3.3 20.2-9c0 0-8.8 7.5-20.2 9z" class="st2"/>
  </g>
  <g>
    <path d="M203.7 90.7c14.2 10.4 25.8-12 25.8-12-25.9-5-25.8 12-25.8 12zm1-1s6.8-8.4 21.9-9.8c0 0-11 1.9-21.9 9.9z" class="st2"/>
    <path fill="none" stroke="#fff" stroke-linecap="round" stroke-linejoin="round" stroke-miterlimit="10" stroke-width="3.1" d="M204.4 90.8l-.4 19.4"/>
    <path d="M178.2 79.6s11.6 22.4 25.8 12c0 0 0-17-25.8-12zm3 1.2c15 1.4 21.8 9.9 21.8 9.9-10.9-8-21.9-10-21.9-10z" class="st2"/>
  </g>
  <path d="M54.1 134.4c1.4-12 5.3-23.2 11.2-33.1M193.3 212.7a86 86 0 01-41.5 17.7M218 107.8a86 86 0 017.5 48.1M125.8 59.8a86 86 0 0156.1 8.4" class="st4"/>
</svg>
