<?xml version="1.0" encoding="UTF-8" standalone="no"?>
<!-- Generator: Adobe Illustrator 22.1.0, SVG Export Plug-In . SVG Version: 6.00 Build 0)  -->

<svg
   xmlns:dc="http://purl.org/dc/elements/1.1/"
   xmlns:cc="http://creativecommons.org/ns#"
   xmlns:rdf="http://www.w3.org/1999/02/22-rdf-syntax-ns#"
   xmlns:svg="http://www.w3.org/2000/svg"
   xmlns="http://www.w3.org/2000/svg"
   xmlns:sodipodi="http://sodipodi.sourceforge.net/DTD/sodipodi-0.dtd"
   xmlns:inkscape="http://www.inkscape.org/namespaces/inkscape"
   version="1.1"
   x="0px"
   y="0px"
   viewBox="0 0 814 121.20679"
   xml:space="preserve"
   id="svg3869"
   sodipodi:docname="logo_white.svg"
   width="814"
   height="121.20679"
   inkscape:version="0.92.3 (2405546, 2018-03-11)"><metadata
   id="metadata3875"><rdf:RDF><cc:Work
       rdf:about=""><dc:format>image/svg+xml</dc:format><dc:type
         rdf:resource="http://purl.org/dc/dcmitype/StillImage" /></cc:Work></rdf:RDF></metadata><defs
   id="defs3873" /><sodipodi:namedview
   pagecolor="#ffffff"
   bordercolor="#666666"
   borderopacity="1"
   objecttolerance="10"
   gridtolerance="10"
   guidetolerance="10"
   inkscape:pageopacity="0"
   inkscape:pageshadow="2"
   inkscape:window-width="1920"
   inkscape:window-height="1017"
   id="namedview3871"
   showgrid="false"
   inkscape:zoom="0.24265323"
   inkscape:cx="406.9"
   inkscape:cy="61.700507"
   inkscape:window-x="-8"
   inkscape:window-y="-8"
   inkscape:window-maximized="1"
   inkscape:current-layer="svg3869" />
<style
   type="text/css"
   id="style3830">
	.st0{fill:#FFFFFF;}
</style>
<g
   id="Bakgrund"
   transform="translate(-188.6,-361.49371)">
</g>
<g
   id="Mallskikt"
   transform="translate(-188.6,-361.49371)">
</g>
<g
   id="Fšrgrund"
   transform="translate(-188.6,-361.49371)">
	<g
   id="g3866">
		<g
   id="g3842">
			<path
   class="st0"
   d="m 301.5,445.4 c 10.2,0 9.7,-4.3 11,-4.4 1.1,0 1.1,1 0.9,2.7 0,0.3 -0.1,0.8 -0.3,1.9 -3.5,22.5 -22.2,37.2 -44.4,37.1 h -18.6 c -15.3,0 -23.4,-10.5 -23.4,-23.4 0,-1.8 0.3,-4.2 0.7,-5.9 1.3,-4.9 5.6,-8.1 11,-8.1 z"
   id="path3834"
   inkscape:connector-curvature="0"
   style="fill:#ffffff" />
			<path
   class="st0"
   d="m 302.2,393.9 c 6.3,0 11.5,-5.1 11.5,-11.5 v -18.1 c 0,-1.8 0.1,-2.9 -1.1,-2.8 -1.3,0.1 -0.9,4.4 -11.1,4.4 h -44.7 c -5.3,0 -9.9,3.7 -11.2,8.6 0,0 -5.2,20.2 -5.4,21 -0.5,1.7 -0.2,2.8 0.9,2.7 1.3,0 0.9,-4.4 11.1,-4.4 h 50 z"
   id="path3836"
   inkscape:connector-curvature="0"
   style="fill:#ffffff" />
			<path
   class="st0"
   d="m 302.2,433.6 c 6.3,0 11.5,-5.1 11.5,-11.5 V 404 c 0,-1.8 0.1,-2.9 -1.1,-2.8 -1.3,0.1 -0.9,4.4 -11.1,4.4 h -53.9 c -5.3,0 -9.9,3.7 -11.2,8.6 0,0 -5.2,20.2 -5.4,21 -0.5,1.7 -0.2,2.8 0.9,2.7 1.3,0 0.9,-4.4 11.1,-4.4 h 59.2 z"
   id="path3838"
   inkscape:connector-curvature="0"
   style="fill:#ffffff" />
			<path
   class="st0"
   d="m 214.7,459.8 c 0,-2.2 0.2,-4.3 0.7,-6.2 l 16.8,-73 c 0.3,-1 0.4,-2 0.4,-3.1 0,-6.3 -5.1,-11.4 -11.4,-11.4 H 201 c -10.2,0 -9.8,-4.3 -11.1,-4.4 -1.3,-0.1 -1.3,1.1 -1.3,2.9 V 441 c 0,16.4 14,36.8 34.6,40.9 1.8,0.3 2.8,0.7 2.9,-0.6 0.1,-0.6 -2.3,-1.8 -4.4,-3.2 -4.7,-3.1 -7.3,-10.7 -7,-18.3 z"
   id="path3840"
   inkscape:connector-curvature="0"
   style="fill:#ffffff" />
		</g>
		<path
   class="st0"
   d="m 602.5,381.9 c 0,-4.2 3.4,-7.6 7.6,-7.6 4.2,0 7.6,3.4 7.6,7.6 0,4.2 -3.4,7.6 -7.6,7.6 -4.2,0 -7.6,-3.4 -7.6,-7.6 z m 7.5,0 m 0,3.6 c 2,0 3.6,-1.6 3.6,-3.6 0,-2 -1.6,-3.6 -3.6,-3.6 -2,0 -3.6,1.6 -3.6,3.6 0,2 1.6,3.6 3.6,3.6 z m 0,-3.6"
   id="path3844"
   inkscape:connector-curvature="0"
   style="fill:#ffffff" />
		<path
   class="st0"
   d="m 989.8,394 h 1 11.8 v 58.5 H 989.8 V 405.6 404 c 0,-8.3 -3.5,-7.9 -3.5,-9 -0.1,-1 0.9,-1 2.3,-1 z"
   id="path3846"
   inkscape:connector-curvature="0"
   style="fill:#ffffff" />
		<path
   class="st0"
   d="m 962.7,423.4 h 12 v 27 c -7.9,2 -16,3.4 -24.3,3.4 -28.9,0 -33.7,-16.7 -33.7,-29.5 0,-18.9 13.5,-31.4 34.8,-31.5 12,0 22.7,5.7 23.1,5.9 l -2.5,7.1 c -0.9,-0.5 -10,-5.8 -20.2,-5.8 -11.3,0 -21.7,6.5 -21.7,22.7 0,3.8 0.6,14.1 7.9,19.6 4.6,3.4 10.5,4.2 14.3,4.2 4,0 7.1,-0.7 9.2,-1.3 v -12.5 c -0.2,-7.4 -3.5,-7.1 -3.5,-8.1 -0.1,-1 0.9,-1 2.3,-1 h 2.3 z"
   id="path3848"
   inkscape:connector-curvature="0"
   style="fill:#ffffff" />
		<path
   class="st0"
   d="m 803.5,394 h 1 39.5 v 7.2 h -27.7 v 16.9 H 841 v 7.3 h -24.7 v 19.4 H 845 v 7.8 h -41.6 v -47.1 -1.3 c 0,-8.3 -3.5,-8 -3.6,-9 -0.1,-1 0.9,-1 2.3,-1 h 1.4 z"
   id="path3850"
   inkscape:connector-curvature="0"
   style="fill:#ffffff" />
		<path
   class="st0"
   d="m 729.9,393.9 h 1 8.6 l 36.8,40.9 v -40.9 h 9.2 v 58.6 h -8.8 l -37.5,-41.3 v 41.3 h -9.3 v -49.6 c -0.3,-7.3 -3.5,-7.1 -3.5,-8 -0.1,-1 0.9,-1 2.3,-1 z"
   id="path3852"
   inkscape:connector-curvature="0"
   style="fill:#ffffff" />
		<path
   class="st0"
   d="m 674,394 h 1 39.6 v 7.2 h -27.7 v 16.9 h 24.7 v 7.3 h -24.7 v 19.4 h 28.7 v 7.8 H 674 v -47.1 -1.3 c 0,-8.3 -3.5,-8 -3.6,-9 -0.1,-1 0.9,-1 2.3,-1 h 1.3 z"
   id="path3854"
   inkscape:connector-curvature="0"
   style="fill:#ffffff" />
		<path
   class="st0"
   d="m 532.1,394 h 1 39.5 v 7.2 h -27.7 v 16.9 h 24.7 v 7.3 h -24.7 v 19.4 h 28.7 v 7.8 H 532 v -49.3 c -0.2,-7.4 -3.5,-7.2 -3.5,-8.2 -0.1,-1 0.9,-1 2.3,-1 h 1.3 z"
   id="path3856"
   inkscape:connector-curvature="0"
   style="fill:#ffffff" />
		<path
   class="st0"
   d="m 442.2,394 h 1 14.1 L 477.7,434.2 500,394 h 13.8 v 58.5 h -12.7 v -42 L 478,452.2 h -5 l -21.5,-41.7 v 42.1 h -9.1 v -49.7 c -0.3,-7.2 -3.5,-6.9 -3.5,-7.9 -0.1,-1 0.9,-1 2.3,-1 z"
   id="path3858"
   inkscape:connector-curvature="0"
   style="fill:#ffffff" />
		<path
   class="st0"
   d="m 372.2,403.5 c -0.1,-7.8 -3.5,-7.5 -3.6,-8.5 -0.1,-1 0.9,-1 2.3,-1 h 1.2 1 11.9 v 37.6 c 0,7.3 7.1,13.2 15.8,13.2 8.7,0 15.7,-5.7 15.7,-13 V 394 h 9.5 v 37.6 c 0,12.2 -12,22.1 -26.9,22.1 -14.9,0 -26.9,-9.9 -26.9,-22.1 z"
   id="path3860"
   inkscape:connector-curvature="0"
   style="fill:#ffffff" />
		<path
   class="st0"
   d="m 604.4,394 h 13.7 l 22.5,58.5 h -14.1 l -6.3,-17 h -23.1 l -7,17 h -9.9 l 21.1,-51 c 1.9,-5.7 -1.4,-5.6 -1.5,-6.5 -0.1,-1 0.9,-1 2.3,-1 z m 13.1,34.1 -8.1,-21.9 -9.1,21.9 z"
   id="path3862"
   inkscape:connector-curvature="0"
   style="fill:#ffffff" />
		<path
   class="st0"
   d="m 912.9,447.6 v 5 c -0.9,0.6 -4.1,1 -6.7,1 -12.5,0 -17,-8.3 -25,-25 -2.4,0 -8.7,0 -8.7,0 v 23.9 h -12.8 v -49.7 c -0.3,-7.2 -3.5,-7 -3.5,-7.9 -0.1,-1 0.9,-1 2.3,-1 h 1.2 1 20.8 c 10.1,0 15.3,0.3 20,4.3 4.2,3.6 4.5,7.9 4.5,11.6 0,6.9 -3.6,12.9 -13.3,15.7 5.4,11.4 11.2,18.6 14.8,20.7 2,1.1 3.9,1.3 5.4,1.4 z m -40.4,-26.4 c 6.9,0 10.4,0.1 12.2,-0.3 6,-1.4 8.6,-4.6 8.6,-10 0,-6.1 -3.2,-9.7 -13.2,-9.7 h -7.6 z"
   id="path3864"
   inkscape:connector-curvature="0"
   style="fill:#ffffff" />
	</g>
</g>
</svg>