<svg xmlns="http://www.w3.org/2000/svg" viewBox="0 0 814 121.1">
  <defs>
    <style>
      .cls-1{fill:#007f32}
    </style>
  </defs>
  <g id="Fšrgrund">
    <path d="M301.5 445.4c10.2 0 9.7-4.4 11-4.4s1 1 .8 2.7c0 .3 0 .8-.3 2a43.6 43.6 0 01-44.4 37h-18.5c-15.3 0-23.5-10.4-23.5-23.4a30.5 30.5 0 01.7-5.9c1.3-4.9 5.6-8 11-8zM302.2 394a11.5 11.5 0 0011.5-11.5v-18.1c0-1.8.1-2.9-1.1-2.8s-.9 4.4-11.1 4.4h-44.7a11.6 11.6 0 00-11.2 8.6l-5.4 21c-.4 1.8-.2 2.8 1 2.8s.8-4.4 11-4.4z" class="cls-1" transform="translate(-188.7 -361.6)"/>
    <path fill="#ffb300" d="M302.2 433.6a11.5 11.5 0 0011.5-11.5v-18c0-1.8.1-3-1.1-2.8s-.9 4.4-11.1 4.4h-53.9a11.6 11.6 0 00-11.2 8.6l-5.4 21c-.4 1.8-.2 2.8 1 2.7s.8-4.4 11-4.3z" transform="translate(-188.7 -361.6)"/>
    <path d="M214.7 459.8a28.1 28.1 0 01.7-6.2l16.8-73a11.4 11.4 0 00-11-14.6H201c-10.2 0-9.8-4.3-11.1-4.4s-1.3 1-1.3 2.9v76.4c0 16.4 14 36.8 34.6 40.9 1.8.3 2.8.7 3-.6 0-.6-2.4-1.8-4.5-3.2-4.7-3-7.3-10.6-7-18.2z" class="cls-1" transform="translate(-188.7 -361.6)"/>
    <path d="M602.5 381.9a7.6 7.6 0 117.5 7.6 7.6 7.6 0 01-7.5-7.6zm7.5 3.6a3.6 3.6 0 10-3.6-3.6 3.6 3.6 0 003.6 3.6zM989.9 394h12.8v58.5h-12.9V404c0-8.3-3.4-8-3.5-9s.9-1 2.3-1zM962.7 423.4h12v27a98 98 0 01-24.3 3.4c-28.9 0-33.7-16.7-33.7-29.5 0-18.9 13.5-31.4 34.8-31.4 12 0 22.8 5.7 23.2 5.8L972 406A44 44 0 00952 400c-11.3 0-21.7 6.4-21.7 22.7 0 3.7.7 14 8 19.5a24.7 24.7 0 0014.2 4.2 35.4 35.4 0 009.3-1.3v-12.6c-.3-7.4-3.5-7.2-3.6-8.1s1-1 2.4-1zM803.5 394H844v7.2h-27.7v16.9H841v7.3h-24.7v19.4H845v7.7h-41.5V404c0-8.3-3.5-8-3.6-9s.9-1 2.3-1zM729.9 393.9h9.6l36.8 41v-41h9.2v58.6h-8.8l-37.5-41.3v41.3H730V403c-.3-7.3-3.5-7-3.6-8s1-1 2.4-1zM674 394h40.5v7.2H687v16.9h24.6v7.3H687v19.4h28.7v7.7H674V404c0-8.3-3.5-8-3.6-9s1-1 2.4-1zM532 394h40.6v7.2H545v16.9h24.7v7.3h-24.7v19.4h28.7v7.7h-41.5v-49.3c-.2-7.4-3.5-7.2-3.6-8.2s1-1 2.4-1zM442.2 394h15.1l20.4 40.2L500 394h13.8v58.5H501v-42l-23 41.7h-5l-21.6-41.7v42.1h-9.1V403c-.3-7.2-3.5-7-3.5-7.9s.8-1 2.3-1zM372.2 403.5c-.1-7.7-3.4-7.5-3.5-8.5s.9-1 2.3-1h14.2v37.7c0 7.2 7 13.2 15.7 13.2s15.7-5.7 15.7-13V394h9.4v37.6c0 12.2-12 22.1-26.9 22.1s-26.9-9.9-26.9-22zM604.4 394H618l22.5 58.5h-14.1l-6.3-17h-23.1l-7 17h-9.9l21.1-51c1.9-5.7-1.4-5.5-1.5-6.5s1-1 2.4-1h2.2zm13 34.1l-8-21.9-9.2 22zM913 447.6v5c-1 .6-4.2 1-6.8 1-12.4 0-17-8.3-25-25h-8.7v23.9h-12.9v-49.7c-.3-7.2-3.4-7-3.5-8s.9-1 2.3-1h23c10.1 0 15.3.4 20 4.4 4.3 3.6 4.5 8 4.5 11.6 0 7-3.5 13-13.2 15.7a50.5 50.5 0 0014.8 20.7 11.4 11.4 0 005.4 1.4zm-40.5-26.4c6.8 0 10.4.2 12.1-.2 6-1.4 8.7-4.6 8.7-10 0-6.1-3.2-9.8-13.3-9.8h-7.5z" transform="translate(-188.7 -361.6)"/>
  </g>
</svg>
