<svg xmlns="http://www.w3.org/2000/svg" id="svg3869" x="0" y="0" version="1.1" viewBox="0 0 814 121.2068" xml:space="preserve">
  <g id="Fšrgrund" transform="translate(-188.6 -361.4937)">
    <g id="g3866">
      <g id="g3842">
        <path id="path3834" fill="#fff" d="M301.5 445.4c10.2 0 9.7-4.3 11-4.4 1.1 0 1.1 1 .9 2.7 0 .3-.1.8-.3 1.9-3.5 22.5-22.2 37.2-44.4 37.1h-18.6c-15.3 0-23.4-10.5-23.4-23.4 0-1.8.3-4.2.7-5.9 1.3-4.9 5.6-8.1 11-8.1z" class="st0"/>
        <path id="path3836" fill="#fff" d="M302.2 393.9c6.3 0 11.5-5.1 11.5-11.5v-18.1c0-1.8.1-2.9-1.1-2.8-1.3.1-.9 4.4-11.1 4.4h-44.7c-5.3 0-9.9 3.7-11.2 8.6 0 0-5.2 20.2-5.4 21-.5 1.7-.2 2.8.9 2.7 1.3 0 .9-4.4 11.1-4.4h50z" class="st0"/>
        <path id="path3838" fill="#fff" d="M302.2 433.6c6.3 0 11.5-5.1 11.5-11.5V404c0-1.8.1-2.9-1.1-2.8-1.3.1-.9 4.4-11.1 4.4h-53.9c-5.3 0-9.9 3.7-11.2 8.6 0 0-5.2 20.2-5.4 21-.5 1.7-.2 2.8.9 2.7 1.3 0 .9-4.4 11.1-4.4h59.2z" class="st0"/>
        <path id="path3840" fill="#fff" d="M214.7 459.8c0-2.2.2-4.3.7-6.2l16.8-73c.3-1 .4-2 .4-3.1 0-6.3-5.1-11.4-11.4-11.4H201c-10.2 0-9.8-4.3-11.1-4.4-1.3-.1-1.3 1.1-1.3 2.9V441c0 16.4 14 36.8 34.6 40.9 1.8.3 2.8.7 2.9-.6.1-.6-2.3-1.8-4.4-3.2-4.7-3.1-7.3-10.7-7-18.3z" class="st0"/>
      </g>
      <path id="path3844" fill="#fff" d="M602.5 381.9c0-4.2 3.4-7.6 7.6-7.6 4.2 0 7.6 3.4 7.6 7.6 0 4.2-3.4 7.6-7.6 7.6-4.2 0-7.6-3.4-7.6-7.6zm7.5 3.6c2 0 3.6-1.6 3.6-3.6s-1.6-3.6-3.6-3.6-3.6 1.6-3.6 3.6 1.6 3.6 3.6 3.6zm0-3.6" class="st0"/>
      <path id="path3846" fill="#fff" d="M989.8 394h12.8v58.5h-12.8V404c0-8.3-3.5-7.9-3.5-9-.1-1 .9-1 2.3-1z" class="st0"/>
      <path id="path3848" fill="#fff" d="M962.7 423.4h12v27c-7.9 2-16 3.4-24.3 3.4-28.9 0-33.7-16.7-33.7-29.5 0-18.9 13.5-31.4 34.8-31.5 12 0 22.7 5.7 23.1 5.9l-2.5 7.1c-.9-.5-10-5.8-20.2-5.8-11.3 0-21.7 6.5-21.7 22.7 0 3.8.6 14.1 7.9 19.6 4.6 3.4 10.5 4.2 14.3 4.2 4 0 7.1-.7 9.2-1.3v-12.5c-.2-7.4-3.5-7.1-3.5-8.1-.1-1 .9-1 2.3-1h2.3z" class="st0"/>
      <path id="path3850" fill="#fff" d="M803.5 394H844v7.2h-27.7v16.9H841v7.3h-24.7v19.4H845v7.8h-41.6v-48.4c0-8.3-3.5-8-3.6-9-.1-1 .9-1 2.3-1h1.4z" class="st0"/>
      <path id="path3852" fill="#fff" d="M729.9 393.9h9.6l36.8 40.9v-40.9h9.2v58.6h-8.8l-37.5-41.3v41.3h-9.3v-49.6c-.3-7.3-3.5-7.1-3.5-8-.1-1 .9-1 2.3-1z" class="st0"/>
      <path id="path3854" fill="#fff" d="M674 394h40.6v7.2h-27.7v16.9h24.7v7.3h-24.7v19.4h28.7v7.8H674v-48.4c0-8.3-3.5-8-3.6-9-.1-1 .9-1 2.3-1h1.3z" class="st0"/>
      <path id="path3856" fill="#fff" d="M532.1 394h40.5v7.2h-27.7v16.9h24.7v7.3h-24.7v19.4h28.7v7.8H532v-49.3c-.2-7.4-3.5-7.2-3.5-8.2-.1-1 .9-1 2.3-1h1.3z" class="st0"/>
      <path id="path3858" fill="#fff" d="M442.2 394h15.1l20.4 40.2L500 394h13.8v58.5h-12.7v-42L478 452.2h-5l-21.5-41.7v42.1h-9.1v-49.7c-.3-7.2-3.5-6.9-3.5-7.9-.1-1 .9-1 2.3-1z" class="st0"/>
      <path id="path3860" fill="#fff" d="M372.2 403.5c-.1-7.8-3.5-7.5-3.6-8.5-.1-1 .9-1 2.3-1H385v37.6c0 7.3 7.1 13.2 15.8 13.2 8.7 0 15.7-5.7 15.7-13V394h9.5v37.6c0 12.2-12 22.1-26.9 22.1-14.9 0-26.9-9.9-26.9-22.1z" class="st0"/>
      <path id="path3862" fill="#fff" d="M604.4 394h13.7l22.5 58.5h-14.1l-6.3-17h-23.1l-7 17h-9.9l21.1-51c1.9-5.7-1.4-5.6-1.5-6.5-.1-1 .9-1 2.3-1zm13.1 34.1l-8.1-21.9-9.1 21.9z" class="st0"/>
      <path id="path3864" fill="#fff" d="M912.9 447.6v5c-.9.6-4.1 1-6.7 1-12.5 0-17-8.3-25-25h-8.7v23.9h-12.8v-49.7c-.3-7.2-3.5-7-3.5-7.9-.1-1 .9-1 2.3-1h23c10.1 0 15.3.3 20 4.3 4.2 3.6 4.5 7.9 4.5 11.6 0 6.9-3.6 12.9-13.3 15.7 5.4 11.4 11.2 18.6 14.8 20.7 2 1.1 3.9 1.3 5.4 1.4zm-40.4-26.4c6.9 0 10.4.1 12.2-.3 6-1.4 8.6-4.6 8.6-10 0-6.1-3.2-9.7-13.2-9.7h-7.6z" class="st0"/>
    </g>
  </g>
</svg>
